<mxfile host="app.diagrams.net" modified="2022-11-24T06:39:54.641Z" agent="5.0 (Windows NT 10.0; Win64; x64) AppleWebKit/537.36 (KHTML, like Gecko) Chrome/107.0.0.0 Safari/537.36" etag="xDqHjwCw3UmVo97GPMhH" version="20.5.3" type="github">
  <diagram name="Page-1" id="58cdce13-f638-feb5-8d6f-7d28b1aa9fa0">
    <mxGraphModel dx="1597" dy="891" grid="1" gridSize="10" guides="1" tooltips="1" connect="1" arrows="1" fold="1" page="1" pageScale="1" pageWidth="1100" pageHeight="850" background="none" math="0" shadow="0">
      <root>
        <mxCell id="0" />
        <mxCell id="1" parent="0" />
        <mxCell id="OMEoa2EQvLNQlHsPpFCV-1" value="Bootloader" style="shape=umlFrame;whiteSpace=wrap;html=1;width=70;height=30;" vertex="1" parent="1">
          <mxGeometry x="60" y="200" width="610" height="1590" as="geometry" />
        </mxCell>
        <mxCell id="OMEoa2EQvLNQlHsPpFCV-34" value="in main.c" style="swimlane;fontStyle=1;align=center;verticalAlign=middle;childLayout=stackLayout;horizontal=1;startSize=30;horizontalStack=0;resizeParent=0;resizeLast=1;container=0;fontColor=#000000;collapsible=0;rounded=1;arcSize=30;strokeColor=#030000;fillColor=#FFFFFF;swimlaneFillColor=#FFFFFF;dropTarget=0;" vertex="1" parent="1">
          <mxGeometry x="110" y="240" width="500" height="520" as="geometry" />
        </mxCell>
        <mxCell id="OMEoa2EQvLNQlHsPpFCV-2" value="Application" style="shape=umlFrame;whiteSpace=wrap;html=1;width=70;height=30;" vertex="1" parent="1">
          <mxGeometry x="720" y="200" width="370" height="200" as="geometry" />
        </mxCell>
        <mxCell id="OMEoa2EQvLNQlHsPpFCV-3" value="" style="ellipse;html=1;shape=startState;fillColor=#000000;strokeColor=#ff0000;" vertex="1" parent="1">
          <mxGeometry x="300.5" y="300" width="30" height="30" as="geometry" />
        </mxCell>
        <mxCell id="OMEoa2EQvLNQlHsPpFCV-4" value="" style="edgeStyle=orthogonalEdgeStyle;html=1;verticalAlign=bottom;endArrow=open;endSize=8;strokeColor=#FF0000;rounded=0;entryX=0.5;entryY=0;entryDx=0;entryDy=0;" edge="1" source="OMEoa2EQvLNQlHsPpFCV-3" parent="1" target="OMEoa2EQvLNQlHsPpFCV-5">
          <mxGeometry relative="1" as="geometry">
            <mxPoint x="315.5" y="390" as="targetPoint" />
          </mxGeometry>
        </mxCell>
        <mxCell id="OMEoa2EQvLNQlHsPpFCV-11" style="edgeStyle=orthogonalEdgeStyle;rounded=0;orthogonalLoop=1;jettySize=auto;html=1;exitX=0.5;exitY=1;exitDx=0;exitDy=0;entryX=0.5;entryY=0;entryDx=0;entryDy=0;strokeColor=#FF0000;startArrow=none;" edge="1" parent="1" source="OMEoa2EQvLNQlHsPpFCV-14" target="OMEoa2EQvLNQlHsPpFCV-10">
          <mxGeometry relative="1" as="geometry" />
        </mxCell>
        <mxCell id="OMEoa2EQvLNQlHsPpFCV-5" value="check pin interrupt &lt;br&gt;(in 3 sec)" style="rhombus;whiteSpace=wrap;html=1;" vertex="1" parent="1">
          <mxGeometry x="238" y="377" width="155" height="65" as="geometry" />
        </mxCell>
        <mxCell id="OMEoa2EQvLNQlHsPpFCV-10" value="check uart interrupt" style="rhombus;whiteSpace=wrap;html=1;" vertex="1" parent="1">
          <mxGeometry x="249.25" y="539" width="132.5" height="66" as="geometry" />
        </mxCell>
        <mxCell id="OMEoa2EQvLNQlHsPpFCV-14" value="yes" style="text;html=1;strokeColor=none;fillColor=none;align=center;verticalAlign=middle;whiteSpace=wrap;rounded=0;" vertex="1" parent="1">
          <mxGeometry x="285.5" y="471" width="60" height="30" as="geometry" />
        </mxCell>
        <mxCell id="OMEoa2EQvLNQlHsPpFCV-15" value="" style="edgeStyle=orthogonalEdgeStyle;rounded=0;orthogonalLoop=1;jettySize=auto;html=1;exitX=0.5;exitY=1;exitDx=0;exitDy=0;entryX=0.5;entryY=0;entryDx=0;entryDy=0;strokeColor=#FF0000;endArrow=none;" edge="1" parent="1" source="OMEoa2EQvLNQlHsPpFCV-5" target="OMEoa2EQvLNQlHsPpFCV-14">
          <mxGeometry relative="1" as="geometry">
            <mxPoint x="315.5" y="424" as="sourcePoint" />
            <mxPoint x="315.5" y="553" as="targetPoint" />
          </mxGeometry>
        </mxCell>
        <mxCell id="OMEoa2EQvLNQlHsPpFCV-16" value="write UART RX to buffer&lt;br&gt;(in 3 sec)&amp;nbsp;" style="rounded=1;whiteSpace=wrap;html=1;arcSize=40;fontColor=#000000;fillColor=#FFFFFF;strokeColor=#120000;" vertex="1" parent="1">
          <mxGeometry x="240" y="694" width="152" height="40" as="geometry" />
        </mxCell>
        <mxCell id="OMEoa2EQvLNQlHsPpFCV-17" value="" style="edgeStyle=orthogonalEdgeStyle;html=1;verticalAlign=bottom;endArrow=open;endSize=8;strokeColor=#ff0000;rounded=0;" edge="1" source="OMEoa2EQvLNQlHsPpFCV-16" parent="1" target="OMEoa2EQvLNQlHsPpFCV-37">
          <mxGeometry relative="1" as="geometry">
            <mxPoint x="320.07692307692287" y="820" as="targetPoint" />
            <Array as="points">
              <mxPoint x="316" y="800" />
              <mxPoint x="316" y="800" />
            </Array>
          </mxGeometry>
        </mxCell>
        <mxCell id="OMEoa2EQvLNQlHsPpFCV-18" style="edgeStyle=orthogonalEdgeStyle;rounded=0;orthogonalLoop=1;jettySize=auto;html=1;exitX=0.5;exitY=1;exitDx=0;exitDy=0;entryX=0.5;entryY=0;entryDx=0;entryDy=0;strokeColor=#FF0000;startArrow=none;" edge="1" parent="1" source="OMEoa2EQvLNQlHsPpFCV-19" target="OMEoa2EQvLNQlHsPpFCV-16">
          <mxGeometry relative="1" as="geometry">
            <mxPoint x="315.5" y="692" as="targetPoint" />
          </mxGeometry>
        </mxCell>
        <mxCell id="OMEoa2EQvLNQlHsPpFCV-19" value="yes" style="text;html=1;strokeColor=none;fillColor=none;align=center;verticalAlign=middle;whiteSpace=wrap;rounded=0;" vertex="1" parent="1">
          <mxGeometry x="285.5" y="624" width="60" height="30" as="geometry" />
        </mxCell>
        <mxCell id="OMEoa2EQvLNQlHsPpFCV-20" value="" style="edgeStyle=orthogonalEdgeStyle;rounded=0;orthogonalLoop=1;jettySize=auto;html=1;exitX=0.5;exitY=1;exitDx=0;exitDy=0;entryX=0.5;entryY=0;entryDx=0;entryDy=0;strokeColor=#FF0000;endArrow=none;" edge="1" parent="1" target="OMEoa2EQvLNQlHsPpFCV-19">
          <mxGeometry relative="1" as="geometry">
            <mxPoint x="315.5" y="605" as="sourcePoint" />
            <mxPoint x="315.5" y="716" as="targetPoint" />
          </mxGeometry>
        </mxCell>
        <mxCell id="OMEoa2EQvLNQlHsPpFCV-25" style="edgeStyle=orthogonalEdgeStyle;rounded=0;orthogonalLoop=1;jettySize=auto;html=1;strokeColor=#FF0000;startArrow=none;" edge="1" parent="1" source="OMEoa2EQvLNQlHsPpFCV-26">
          <mxGeometry relative="1" as="geometry">
            <mxPoint x="375.5" y="569.5" as="sourcePoint" />
            <mxPoint x="316" y="340" as="targetPoint" />
            <Array as="points">
              <mxPoint x="493" y="340" />
            </Array>
          </mxGeometry>
        </mxCell>
        <mxCell id="OMEoa2EQvLNQlHsPpFCV-26" value="no" style="text;html=1;strokeColor=none;fillColor=none;align=center;verticalAlign=middle;whiteSpace=wrap;rounded=0;" vertex="1" parent="1">
          <mxGeometry x="463" y="441" width="60" height="30" as="geometry" />
        </mxCell>
        <mxCell id="OMEoa2EQvLNQlHsPpFCV-29" value="" style="edgeStyle=orthogonalEdgeStyle;rounded=0;orthogonalLoop=1;jettySize=auto;html=1;strokeColor=#FF0000;endArrow=none;entryX=0.5;entryY=1;entryDx=0;entryDy=0;" edge="1" parent="1" source="OMEoa2EQvLNQlHsPpFCV-10" target="OMEoa2EQvLNQlHsPpFCV-26">
          <mxGeometry relative="1" as="geometry">
            <mxPoint x="377.7922077922077" y="570.0285714285714" as="sourcePoint" />
            <mxPoint x="316" y="340" as="targetPoint" />
            <Array as="points">
              <mxPoint x="493" y="570" />
            </Array>
          </mxGeometry>
        </mxCell>
        <mxCell id="OMEoa2EQvLNQlHsPpFCV-30" style="edgeStyle=orthogonalEdgeStyle;rounded=0;orthogonalLoop=1;jettySize=auto;html=1;strokeColor=#FF0000;startArrow=none;" edge="1" parent="1" source="OMEoa2EQvLNQlHsPpFCV-31">
          <mxGeometry relative="1" as="geometry">
            <mxPoint x="385.5" y="579.5" as="sourcePoint" />
            <mxPoint x="318" y="360" as="targetPoint" />
            <Array as="points">
              <mxPoint x="438" y="360" />
            </Array>
          </mxGeometry>
        </mxCell>
        <mxCell id="OMEoa2EQvLNQlHsPpFCV-31" value="no" style="text;html=1;strokeColor=none;fillColor=none;align=center;verticalAlign=middle;whiteSpace=wrap;rounded=0;" vertex="1" parent="1">
          <mxGeometry x="408" y="370" width="60" height="30" as="geometry" />
        </mxCell>
        <mxCell id="OMEoa2EQvLNQlHsPpFCV-32" value="" style="edgeStyle=orthogonalEdgeStyle;rounded=0;orthogonalLoop=1;jettySize=auto;html=1;strokeColor=#FF0000;endArrow=none;entryX=0.5;entryY=1;entryDx=0;entryDy=0;exitX=1;exitY=0.5;exitDx=0;exitDy=0;" edge="1" parent="1" target="OMEoa2EQvLNQlHsPpFCV-31" source="OMEoa2EQvLNQlHsPpFCV-5">
          <mxGeometry relative="1" as="geometry">
            <mxPoint x="387.7348484848485" y="579.9999999999999" as="sourcePoint" />
            <mxPoint x="326" y="350" as="targetPoint" />
            <Array as="points">
              <mxPoint x="438" y="410" />
            </Array>
          </mxGeometry>
        </mxCell>
        <mxCell id="OMEoa2EQvLNQlHsPpFCV-37" value="in etx_ota_update.c" style="swimlane;fontStyle=1;align=center;verticalAlign=middle;childLayout=stackLayout;horizontal=1;startSize=30;horizontalStack=0;resizeParent=0;resizeLast=1;container=0;fontColor=#000000;collapsible=0;rounded=1;arcSize=30;strokeColor=#030000;fillColor=#FFFFFF;swimlaneFillColor=#FFFFFF;dropTarget=0;" vertex="1" parent="1">
          <mxGeometry x="100" y="830" width="500" height="520" as="geometry" />
        </mxCell>
      </root>
    </mxGraphModel>
  </diagram>
</mxfile>
